<?xml version="1.0" encoding="iso-8859-1"?>
<!-- Generator: Adobe Illustrator 19.0.0, SVG Export Plug-In . SVG Version: 6.00 Build 0)  -->
<svg version="1.1" id="Layer_1" xmlns="http://www.w3.org/2000/svg" xmlns:xlink="http://www.w3.org/1999/xlink" x="0px" y="0px"
	 viewBox="0 0 512 512" style="enable-background:new 0 0 512 512;" xml:space="preserve">
<g>
	<path style="fill:#FF5700;" d="M364.803,108.412c-4.58-0.497-8.658,2.794-9.156,7.352c-2.559,23.42-14.087,44.442-32.457,59.191
		c-18.37,14.749-41.382,21.468-64.806,18.903H219.19v17.137l48.981,0.004c23.752,0,46.629-8.01,65.417-23.096
		c21.829-17.526,35.527-42.505,38.569-70.333C372.652,113.01,369.36,108.911,364.803,108.412z"/>
	<path style="fill:#FF5700;" d="M202.7,492.342l-8.999-171.402l-16.582,0.871l8.667,165.067l0.317,0.102l-24.073,8.83
		c-4.355,1.436-6.721,6.131-5.285,10.486c1.436,4.356,6.131,6.72,10.486,5.285l29.767-10.918
		C200.634,499.463,202.875,495.987,202.7,492.342z"/>
	<path style="fill:#FF5700;" d="M235.677,492.342l8.999-171.402l16.582,0.871l-8.667,165.067l-0.317,0.102l24.073,8.83
		c4.355,1.436,6.721,6.131,5.285,10.486c-1.436,4.356-6.131,6.72-10.486,5.285l-29.767-10.918
		C237.742,499.463,235.502,495.987,235.677,492.342z"/>
</g>
<path style="fill:#F7D0BC;" d="M263.804,89.667h-89.231c-2.2,5.507-3.41,11.519-3.41,17.812c0,26.53,21.504,48.017,48.017,48.017
	c26.53,0,48.035-21.486,48.035-48.017C267.215,101.186,266.005,95.175,263.804,89.667z"/>
<path style="fill:#5C4853;" d="M246.865,18.096h-55.354c-12.177,0-21.418,9.937-20.534,22.082l3.601,49.492h89.22l3.601-49.492
	C268.283,28.032,259.043,18.096,246.865,18.096z"/>
<g>
	<path style="fill:#FF5700;" d="M268.451,97.972h-98.526c-4.586,0-8.303-3.717-8.303-8.303c0-4.585,3.716-8.303,8.303-8.303h98.526
		c4.586,0,8.303,3.717,8.303,8.303C276.754,94.255,273.038,97.972,268.451,97.972z"/>
	<path style="fill:#FF5700;" d="M180.889,210.412v-16.605c-31.815,0-57.698,25.883-57.698,57.698s25.883,57.698,57.698,57.698
		v-16.605c-22.659,0-41.093-18.434-41.093-41.093S158.23,210.412,180.889,210.412z"/>
	<path style="fill:#FF5700;" d="M172.59,183.464v126.791c0,25.735,20.863,46.598,46.598,46.598s46.598-20.863,46.598-46.598V183.464
		L172.59,183.464L172.59,183.464z"/>
</g>
<g>
	<path style="fill:#FFB13A;" d="M232.577,291.399h-26.776c-4.586,0-8.303-3.717-8.303-8.303c0-4.585,3.716-8.303,8.303-8.303h26.776
		c4.586,0,8.303,3.717,8.303,8.303C240.88,287.682,237.162,291.399,232.577,291.399z"/>
	<path style="fill:#FFB13A;" d="M232.577,258.188h-26.776c-4.586,0-8.303-3.717-8.303-8.303c0-4.585,3.716-8.303,8.303-8.303h26.776
		c4.586,0,8.303,3.717,8.303,8.303C240.88,254.471,237.162,258.188,232.577,258.188z"/>
	<path style="fill:#FFB13A;" d="M232.577,224.977h-26.776c-4.586,0-8.303-3.717-8.303-8.303s3.716-8.303,8.303-8.303h26.776
		c4.586,0,8.303,3.717,8.303,8.303S237.162,224.977,232.577,224.977z"/>
	<path style="fill:#FFB13A;" d="M268.555,191.766h-98.734c-4.586,0-8.303-3.717-8.303-8.303s3.716-8.303,8.303-8.303h98.734
		c4.586,0,8.303,3.717,8.303,8.303S273.141,191.766,268.555,191.766z"/>
	<path style="fill:#FFB13A;" d="M219.188,59.226c-4.586,0-8.303-3.717-8.303-8.303V8.303c0-4.585,3.716-8.303,8.303-8.303
		c4.586,0,8.303,3.717,8.303,8.303v42.621C227.491,55.509,223.775,59.226,219.188,59.226z"/>
	<path style="fill:#FFB13A;" d="M355.597,48.156v190.664c0,4.585,3.716,8.303,8.303,8.303s8.303-3.717,8.303-8.303V48.156H355.597z"
		/>
</g>
<circle style="fill:#FFD089;" cx="363.902" cy="42.621" r="24.908"/>
<g>
</g>
<g>
</g>
<g>
</g>
<g>
</g>
<g>
</g>
<g>
</g>
<g>
</g>
<g>
</g>
<g>
</g>
<g>
</g>
<g>
</g>
<g>
</g>
<g>
</g>
<g>
</g>
<g>
</g>
</svg>
